<mxfile host="app.diagrams.net" modified="2021-05-05T11:37:52.011Z" agent="5.0 (Windows NT 10.0; Win64; x64) AppleWebKit/537.36 (KHTML, like Gecko) Chrome/90.0.4430.93 Safari/537.36" etag="gUnaqUkJ9d6_BA2Ogha6" version="14.6.9" type="github">
  <diagram id="C5RBs43oDa-KdzZeNtuy" name="Page-1">
    <mxGraphModel dx="981" dy="526" grid="1" gridSize="10" guides="1" tooltips="1" connect="1" arrows="1" fold="1" page="1" pageScale="1" pageWidth="827" pageHeight="1169" math="0" shadow="0">
      <root>
        <mxCell id="WIyWlLk6GJQsqaUBKTNV-0" />
        <mxCell id="WIyWlLk6GJQsqaUBKTNV-1" parent="WIyWlLk6GJQsqaUBKTNV-0" />
        <mxCell id="FNFGRxiD56ECUeR6mqJK-1" value="«entity»&lt;br&gt;&lt;b&gt;Unternehmer&lt;/b&gt;" style="html=1;" vertex="1" parent="WIyWlLk6GJQsqaUBKTNV-1">
          <mxGeometry x="620" y="110" width="110" height="50" as="geometry" />
        </mxCell>
        <mxCell id="FNFGRxiD56ECUeR6mqJK-6" style="edgeStyle=orthogonalEdgeStyle;rounded=0;orthogonalLoop=1;jettySize=auto;html=1;entryX=1;entryY=0.75;entryDx=0;entryDy=0;dashed=1;endArrow=open;endFill=0;startArrow=open;startFill=0;" edge="1" parent="WIyWlLk6GJQsqaUBKTNV-1" source="FNFGRxiD56ECUeR6mqJK-3" target="FNFGRxiD56ECUeR6mqJK-5">
          <mxGeometry relative="1" as="geometry" />
        </mxCell>
        <mxCell id="FNFGRxiD56ECUeR6mqJK-3" value="«Control»&lt;br&gt;&lt;b&gt;ControlRegistrierung&lt;/b&gt;" style="html=1;" vertex="1" parent="WIyWlLk6GJQsqaUBKTNV-1">
          <mxGeometry x="310" y="250" width="130" height="50" as="geometry" />
        </mxCell>
        <mxCell id="FNFGRxiD56ECUeR6mqJK-5" value="«boundary»&lt;br&gt;&lt;b&gt;DialogReg&lt;/b&gt;" style="html=1;" vertex="1" parent="WIyWlLk6GJQsqaUBKTNV-1">
          <mxGeometry x="80" y="150" width="120" height="50" as="geometry" />
        </mxCell>
        <mxCell id="FNFGRxiD56ECUeR6mqJK-7" value="«DTO»&lt;br&gt;&lt;b&gt;BenutzerDaten&lt;/b&gt;" style="html=1;" vertex="1" parent="WIyWlLk6GJQsqaUBKTNV-1">
          <mxGeometry x="80" y="330" width="110" height="40" as="geometry" />
        </mxCell>
        <mxCell id="FNFGRxiD56ECUeR6mqJK-8" value="&lt;p style=&quot;margin: 0px ; margin-top: 4px ; text-align: center&quot;&gt;&amp;lt;&amp;lt;entity&amp;gt;&amp;gt;&lt;br&gt;&lt;b&gt;Student&lt;/b&gt;&lt;/p&gt;&lt;hr size=&quot;1&quot;&gt;&lt;p style=&quot;margin: 0px ; margin-left: 4px&quot;&gt;&lt;span style=&quot;text-align: center&quot;&gt;liste: List&amp;lt;Stammdaten&amp;gt;&lt;/span&gt;&lt;br&gt;&lt;br&gt;&lt;/p&gt;&lt;p style=&quot;margin: 0px ; margin-left: 4px&quot;&gt;&lt;br&gt;&lt;/p&gt;" style="verticalAlign=top;align=left;overflow=fill;fontSize=12;fontFamily=Helvetica;html=1;" vertex="1" parent="WIyWlLk6GJQsqaUBKTNV-1">
          <mxGeometry x="340" y="60" width="190" height="90" as="geometry" />
        </mxCell>
      </root>
    </mxGraphModel>
  </diagram>
</mxfile>
